<svg width="45" height="45" viewBox="0 0 45 45" fill="none" xmlns="http://www.w3.org/2000/svg">
<path d="M23.0625 22.9125C24.063 22.0465 24.8654 20.9754 25.4154 19.7719C25.9654 18.5684 26.25 17.2607 26.25 15.9375C26.25 13.4511 25.2623 11.0665 23.5041 9.30837C21.746 7.55022 19.3614 6.5625 16.875 6.5625C14.3886 6.5625 12.004 7.55022 10.2459 9.30837C8.48772 11.0665 7.5 13.4511 7.5 15.9375C7.49999 17.2607 7.78463 18.5684 8.33461 19.7719C8.88459 20.9754 9.68704 22.0465 10.6875 22.9125C8.06276 24.101 5.83587 26.0204 4.27309 28.441C2.7103 30.8617 1.87776 33.6812 1.875 36.5625C1.875 37.0598 2.07254 37.5367 2.42417 37.8883C2.77581 38.24 3.25272 38.4375 3.75 38.4375C4.24728 38.4375 4.72419 38.24 5.07583 37.8883C5.42746 37.5367 5.625 37.0598 5.625 36.5625C5.625 33.5788 6.81026 30.7173 8.92005 28.6075C11.0298 26.4978 13.8913 25.3125 16.875 25.3125C19.8587 25.3125 22.7202 26.4978 24.83 28.6075C26.9397 30.7173 28.125 33.5788 28.125 36.5625C28.125 37.0598 28.3225 37.5367 28.6742 37.8883C29.0258 38.24 29.5027 38.4375 30 38.4375C30.4973 38.4375 30.9742 38.24 31.3258 37.8883C31.6775 37.5367 31.875 37.0598 31.875 36.5625C31.8722 33.6812 31.0397 30.8617 29.4769 28.441C27.9141 26.0204 25.6872 24.101 23.0625 22.9125ZM16.875 21.5625C15.7625 21.5625 14.6749 21.2326 13.7499 20.6145C12.8249 19.9964 12.1039 19.1179 11.6782 18.0901C11.2524 17.0623 11.141 15.9313 11.3581 14.8401C11.5751 13.749 12.1109 12.7467 12.8975 11.96C13.6842 11.1734 14.6865 10.6376 15.7776 10.4206C16.8688 10.2035 17.9998 10.3149 19.0276 10.7407C20.0554 11.1664 20.9339 11.8874 21.552 12.8124C22.1701 13.7374 22.5 14.825 22.5 15.9375C22.5 17.4293 21.9074 18.8601 20.8525 19.915C19.7976 20.9699 18.3668 21.5625 16.875 21.5625ZM35.1375 22.1625C36.3374 20.8112 37.1213 19.142 37.3946 17.3556C37.668 15.5693 37.4192 13.742 36.6783 12.0938C35.9374 10.4455 34.7359 9.04649 33.2184 8.06517C31.7009 7.08384 29.9321 6.56202 28.125 6.5625C27.6277 6.5625 27.1508 6.76004 26.7992 7.11168C26.4475 7.46331 26.25 7.94022 26.25 8.4375C26.25 8.93478 26.4475 9.41169 26.7992 9.76333C27.1508 10.115 27.6277 10.3125 28.125 10.3125C29.6168 10.3125 31.0476 10.9051 32.1025 11.96C33.1574 13.0149 33.75 14.4457 33.75 15.9375C33.7473 16.9223 33.4862 17.8892 32.9926 18.7414C32.4991 19.5936 31.7904 20.3013 30.9375 20.7938C30.6595 20.9541 30.4273 21.1831 30.2632 21.4589C30.099 21.7347 30.0084 22.0479 30 22.3688C29.9922 22.6871 30.0655 23.0021 30.2131 23.2842C30.3607 23.5663 30.5778 23.8062 30.8438 23.9813L31.575 24.4688L31.8187 24.6C34.0789 25.672 35.9856 27.3675 37.3143 29.4868C38.6431 31.6062 39.3385 34.0611 39.3187 36.5625C39.3187 37.0598 39.5163 37.5367 39.8679 37.8883C40.2196 38.24 40.6965 38.4375 41.1937 38.4375C41.691 38.4375 42.1679 38.24 42.5196 37.8883C42.8712 37.5367 43.0687 37.0598 43.0687 36.5625C43.0841 33.6852 42.3634 30.8517 40.9753 28.3314C39.5871 25.811 37.5775 23.6875 35.1375 22.1625Z" fill="#6F63BE"/>
</svg>
