<svg width="56" height="50" viewBox="0 0 56 50" fill="none" xmlns="http://www.w3.org/2000/svg">
<path d="M7.00002 16.6667H49C49.6189 16.6667 50.2124 16.4472 50.6499 16.0565C51.0875 15.6658 51.3334 15.1359 51.3334 14.5833C51.3334 14.0308 51.0875 13.5009 50.6499 13.1102C50.2124 12.7195 49.6189 12.5 49 12.5H7.00002C6.38118 12.5 5.78769 12.7195 5.3501 13.1102C4.91252 13.5009 4.66669 14.0308 4.66669 14.5833C4.66669 15.1359 4.91252 15.6658 5.3501 16.0565C5.78769 16.4472 6.38118 16.6667 7.00002 16.6667ZM49 33.3333H7.00002C6.38118 33.3333 5.78769 33.5528 5.3501 33.9435C4.91252 34.3342 4.66669 34.8641 4.66669 35.4167C4.66669 35.9692 4.91252 36.4991 5.3501 36.8898C5.78769 37.2805 6.38118 37.5 7.00002 37.5H49C49.6189 37.5 50.2124 37.2805 50.6499 36.8898C51.0875 36.4991 51.3334 35.9692 51.3334 35.4167C51.3334 34.8641 51.0875 34.3342 50.6499 33.9435C50.2124 33.5528 49.6189 33.3333 49 33.3333ZM49 22.9167H7.00002C6.38118 22.9167 5.78769 23.1362 5.3501 23.5269C4.91252 23.9176 4.66669 24.4475 4.66669 25C4.66669 25.5525 4.91252 26.0824 5.3501 26.4731C5.78769 26.8638 6.38118 27.0833 7.00002 27.0833H49C49.6189 27.0833 50.2124 26.8638 50.6499 26.4731C51.0875 26.0824 51.3334 25.5525 51.3334 25C51.3334 24.4475 51.0875 23.9176 50.6499 23.5269C50.2124 23.1362 49.6189 22.9167 49 22.9167Z" fill="#6F63BE"/>
</svg>
