<svg width="53" height="49" viewBox="0 0 53 49" fill="none" xmlns="http://www.w3.org/2000/svg">
<path fill-rule="evenodd" clip-rule="evenodd" d="M29.94 11.299C28.0175 9.59352 24.9822 9.59352 23.0597 11.299L12.8429 20.3627C12.5926 20.5848 12.4242 20.874 12.3617 21.1895C11.138 27.3591 11.0476 33.6753 12.0945 39.8727L12.343 41.3437H18.916V28.6622C18.916 27.8166 19.6575 27.131 20.5722 27.131H32.4275C33.3422 27.131 34.0837 27.8166 34.0837 28.6622V41.3437H40.6567L40.9052 39.8727C41.9521 33.6753 41.8617 27.3591 40.638 21.1895C40.5755 20.874 40.4071 20.5848 40.1568 20.3627L29.94 11.299ZM20.7662 9.0893C23.9704 6.24676 29.0293 6.24676 32.2335 9.0893L42.4502 18.1529C43.2023 18.8202 43.7082 19.6893 43.8962 20.6371C45.187 27.1452 45.2823 33.8079 44.1781 40.3452L43.7789 42.7084C43.6138 43.6857 42.7033 44.4062 41.6334 44.4062H32.4275C31.5128 44.4062 30.7712 43.7206 30.7712 42.8749V30.1935H22.2285V42.8749C22.2285 43.7206 21.4869 44.4062 20.5722 44.4062H11.3663C10.2964 44.4062 9.38592 43.6857 9.22083 42.7084L8.82165 40.3452C7.71737 33.8079 7.81266 27.1452 9.10349 20.6371C9.2915 19.6893 9.79739 18.8202 10.5495 18.1529L20.7662 9.0893Z" fill="#6F63BE"/>
</svg>
