<svg width="47" height="49" viewBox="0 0 47 49" fill="none" xmlns="http://www.w3.org/2000/svg">
<path d="M14.6549 10.7381C12.4137 10.9992 10.6198 12.8434 10.3605 15.1547C9.66393 21.3638 9.66393 27.6362 10.3605 33.8453C10.6198 36.1567 12.4137 38.0008 14.6549 38.2619C20.4845 38.9412 26.5155 38.9412 32.3451 38.2619C34.5863 38.0008 36.3802 36.1567 36.6395 33.8453C37.14 29.3839 37.2809 24.8898 37.0621 20.41C37.0565 20.2943 37.0979 20.1815 37.1765 20.0996L39.2108 17.9787C39.4462 17.7333 39.8485 17.8867 39.8735 18.2329C40.2575 23.5513 40.152 28.8985 39.5571 34.201C39.1364 37.9515 36.248 40.8887 32.6714 41.3055C26.6249 42.01 20.3751 42.01 14.3286 41.3055C10.752 40.8887 7.86363 37.9515 7.44288 34.201C6.7198 27.7556 6.7198 21.2444 7.44288 14.799C7.86363 11.0485 10.752 8.1113 14.3286 7.69454C20.3751 6.99 26.6249 6.99 32.6714 7.69454C33.9311 7.84132 35.1054 8.30076 36.1166 8.99826C36.3156 9.13551 36.3353 9.42714 36.1666 9.60302L34.5943 11.2422C34.4657 11.3763 34.2662 11.3989 34.1059 11.3093C33.5705 11.0102 32.9755 10.8115 32.3451 10.7381C26.5155 10.0588 20.4845 10.0588 14.6549 10.7381Z" fill="#6F63BE"/>
<path d="M41.1844 12.3119C41.7579 11.7139 41.7579 10.7444 41.1844 10.1464C40.6108 9.54843 39.6808 9.54843 39.1072 10.1464L22.5208 27.4387L17.6844 22.3964C17.1108 21.7984 16.1808 21.7984 15.6072 22.3964C15.0337 22.9944 15.0337 23.9639 15.6072 24.5619L21.4822 30.6869C22.0558 31.2849 22.9858 31.2849 23.5594 30.6869L41.1844 12.3119Z" fill="#6F63BE"/>
</svg>
