<svg width="53" height="53" viewBox="0 0 53 53" fill="none" xmlns="http://www.w3.org/2000/svg">
<path d="M24.8437 41.9583C24.8437 41.0436 25.5853 40.3021 26.5 40.3021H39.75C40.0549 40.3021 40.3021 40.0549 40.3021 39.75L40.3021 13.25C40.3021 12.9451 40.0549 12.6979 39.75 12.6979L26.5 12.6979C25.5853 12.6979 24.8437 11.9564 24.8437 11.0417C24.8437 10.1269 25.5853 9.38541 26.5 9.38541H39.75C41.8843 9.38541 43.6146 11.1156 43.6146 13.25V39.75C43.6146 41.8843 41.8843 43.6146 39.75 43.6146H26.5C25.5853 43.6146 24.8437 42.8731 24.8437 41.9583Z" fill="#6F63BE"/>
<path d="M34.4756 28.9628C34.4756 30.1824 33.4869 31.1711 32.2673 31.1711H21.5436C21.493 31.956 21.4296 32.7403 21.3535 33.5236L21.288 34.1976C21.1814 35.2935 20.0177 35.9498 19.0248 35.4739C14.9882 33.5394 11.3339 30.8921 8.23767 27.6594L8.17151 27.5903C7.58166 26.9745 7.58166 26.0033 8.17151 25.3874L8.23767 25.3183C11.3339 22.0856 14.9882 19.4383 19.0248 17.5038C20.0177 17.0279 21.1814 17.6842 21.288 18.7801L21.3535 19.4541C21.4296 20.2374 21.493 21.0217 21.5436 21.8066L32.2673 21.8066C33.4869 21.8066 34.4756 22.7953 34.4756 24.015V28.9628Z" fill="#6F63BE"/>
</svg>
