<svg width="74" height="73" viewBox="0 0 74 73" fill="none" xmlns="http://www.w3.org/2000/svg">
<path d="M36.9999 6.08331C31.0197 6.09452 25.1718 7.82105 20.1687 11.0526C15.1655 14.2842 11.2229 18.8812 8.8211 24.2839C6.41932 29.6866 5.66203 35.6618 6.64145 41.4815C7.62087 47.3012 10.2947 52.7144 14.3374 57.0616C17.2247 60.1491 20.7289 62.6131 24.6293 64.2984C28.5297 65.9837 32.7417 66.8538 36.9999 66.8538C41.258 66.8538 45.47 65.9837 49.3704 64.2984C53.2708 62.6131 56.7751 60.1491 59.6624 57.0616C63.705 52.7144 66.3789 47.3012 67.3583 41.4815C68.3377 35.6618 67.5804 29.6866 65.1786 24.2839C62.7769 18.8812 58.8343 14.2842 53.8311 11.0526C48.8279 7.82105 42.9801 6.09452 36.9999 6.08331ZM36.9999 60.8333C30.6126 60.8237 24.4782 58.3704 19.8874 53.9896C21.2812 50.6423 23.6522 47.7794 26.6992 45.7646C29.7462 43.7497 33.3316 42.674 36.9999 42.674C40.6681 42.674 44.2535 43.7497 47.3005 45.7646C50.3475 47.7794 52.7186 50.6423 54.1124 53.9896C49.5215 58.3704 43.3871 60.8237 36.9999 60.8333ZM30.8332 30.4166C30.8332 29.2135 31.1949 28.0373 31.8725 27.0369C32.5501 26.0365 33.5132 25.2568 34.64 24.7964C35.7668 24.3359 37.0067 24.2155 38.2029 24.4502C39.3991 24.6849 40.4979 25.2643 41.3604 26.1151C42.2228 26.9659 42.8101 28.0498 43.048 29.2298C43.286 30.4099 43.1639 31.6331 42.6971 32.7446C42.2304 33.8562 41.44 34.8063 40.4259 35.4748C39.4118 36.1432 38.2195 36.5 36.9999 36.5C35.3644 36.5 33.7958 35.8591 32.6394 34.7182C31.4829 33.5774 30.8332 32.03 30.8332 30.4166ZM58.3057 48.6666C55.5508 44.0182 51.3109 40.4025 46.2499 38.3858C47.8198 36.6297 48.8427 34.4641 49.1959 32.1487C49.5491 29.8333 49.2175 27.4666 48.2409 25.3325C47.2644 23.1984 45.6843 21.3876 43.6904 20.1175C41.6965 18.8473 39.3734 18.1717 36.9999 18.1717C34.6263 18.1717 32.3032 18.8473 30.3093 20.1175C28.3154 21.3876 26.7354 23.1984 25.7588 25.3325C24.7822 27.4666 24.4507 29.8333 24.8038 32.1487C25.157 34.4641 26.1799 36.6297 27.7499 38.3858C22.6889 40.4025 18.4489 44.0182 15.694 48.6666C13.4985 44.9774 12.3385 40.778 12.3332 36.5C12.3332 30.0464 14.932 23.8571 19.5579 19.2937C24.1838 14.7303 30.4579 12.1666 36.9999 12.1666C43.5419 12.1666 49.8159 14.7303 54.4418 19.2937C59.0677 23.8571 61.6665 30.0464 61.6665 36.5C61.6612 40.778 60.5012 44.9774 58.3057 48.6666Z" fill="#6F63BE"/>
</svg>
