<svg width="46" height="53" viewBox="0 0 46 53" fill="none" xmlns="http://www.w3.org/2000/svg">
<path d="M40.25 26.4999C39.7416 26.4999 39.2541 26.7326 38.8947 27.1468C38.5352 27.5609 38.3333 28.1226 38.3333 28.7083V41.9583C38.3333 42.544 38.1314 43.1057 37.7719 43.5198C37.4125 43.934 36.925 44.1666 36.4166 44.1666H9.58331C9.07498 44.1666 8.58747 43.934 8.22803 43.5198C7.86858 43.1057 7.66665 42.544 7.66665 41.9583V11.0416C7.66665 10.4559 7.86858 9.89423 8.22803 9.48009C8.58747 9.06594 9.07498 8.83328 9.58331 8.83328H21.0833C21.5916 8.83328 22.0792 8.60062 22.4386 8.18647C22.798 7.77233 23 7.21063 23 6.62495C23 6.03926 22.798 5.47756 22.4386 5.06342C22.0792 4.64928 21.5916 4.41661 21.0833 4.41661H9.58331C8.05832 4.41661 6.59578 5.1146 5.51745 6.35703C4.43912 7.59946 3.83331 9.28455 3.83331 11.0416V41.9583C3.83331 43.7153 4.43912 45.4004 5.51745 46.6429C6.59578 47.8853 8.05832 48.5833 9.58331 48.5833H36.4166C37.9416 48.5833 39.4042 47.8853 40.4825 46.6429C41.5608 45.4004 42.1666 43.7153 42.1666 41.9583V28.7083C42.1666 28.1226 41.9647 27.5609 41.6053 27.1468C41.2458 26.7326 40.7583 26.4999 40.25 26.4999ZM11.5 28.1783V37.5416C11.5 38.1273 11.7019 38.689 12.0614 39.1031C12.4208 39.5173 12.9083 39.75 13.4166 39.75H21.5433C21.7956 39.7516 22.0456 39.6959 22.2791 39.586C22.5127 39.4761 22.7251 39.3142 22.9041 39.1095L36.1675 23.8058L41.6108 17.6666C41.7905 17.4613 41.9331 17.2171 42.0304 16.948C42.1277 16.6789 42.1778 16.3902 42.1778 16.0987C42.1778 15.8072 42.1277 15.5185 42.0304 15.2494C41.9331 14.9803 41.7905 14.7361 41.6108 14.5308L33.4841 5.05703C33.306 4.85005 33.094 4.68576 32.8604 4.57364C32.6269 4.46153 32.3763 4.40381 32.1233 4.40381C31.8703 4.40381 31.6198 4.46153 31.3862 4.57364C31.1526 4.68576 30.9407 4.85005 30.7625 5.05703L25.3575 11.3066L12.0558 26.6104C11.8782 26.8167 11.7376 27.0614 11.6423 27.3305C11.5469 27.5995 11.4985 27.8877 11.5 28.1783ZM32.1233 9.7387L37.5475 15.9883L34.8258 19.1241L29.4016 12.8745L32.1233 9.7387ZM15.3333 29.0837L26.6991 15.9883L32.1233 22.2379L20.7575 35.3333H15.3333V29.0837Z" fill="#6F63BE"/>
</svg>
