<svg width="50" height="56" viewBox="0 0 50 56" fill="none" xmlns="http://www.w3.org/2000/svg">
<path d="M23.9583 46.6666H11.4583C10.9058 46.6666 10.3759 46.4208 9.98517 45.9832C9.59447 45.5456 9.37498 44.9521 9.37498 44.3333V11.6666C9.37498 11.0478 9.59447 10.4543 9.98517 10.0167C10.3759 9.57913 10.9058 9.33329 11.4583 9.33329H21.875V16.3333C21.875 18.1898 22.5335 19.9703 23.7056 21.283C24.8777 22.5958 26.4674 23.3333 28.125 23.3333H34.375V35C34.375 35.6188 34.5945 36.2123 34.9852 36.6499C35.3759 37.0875 35.9058 37.3333 36.4583 37.3333C37.0108 37.3333 37.5408 37.0875 37.9315 36.6499C38.3222 36.2123 38.5416 35.6188 38.5416 35V21C38.5416 21 38.5416 21 38.5416 20.86C38.5199 20.6456 38.4781 20.4344 38.4166 20.23V20.02C38.3165 19.78 38.1829 19.5595 38.0208 19.3666L25.5208 5.36663C25.3486 5.18513 25.1517 5.03548 24.9375 4.92329C24.8686 4.90978 24.7981 4.90978 24.7291 4.92329C24.5266 4.80197 24.3089 4.71544 24.0833 4.66663H11.4583C9.80071 4.66663 8.211 5.40412 7.0389 6.71688C5.86679 8.02963 5.20831 9.81011 5.20831 11.6666V44.3333C5.20831 46.1898 5.86679 47.9703 7.0389 49.283C8.211 50.5958 9.80071 51.3333 11.4583 51.3333H23.9583C24.5108 51.3333 25.0408 51.0875 25.4315 50.6499C25.8222 50.2123 26.0416 49.6188 26.0416 49C26.0416 48.3811 25.8222 47.7876 25.4315 47.35C25.0408 46.9125 24.5108 46.6666 23.9583 46.6666ZM26.0416 12.6233L31.4375 18.6666H28.125C27.5724 18.6666 27.0425 18.4208 26.6518 17.9832C26.2611 17.5456 26.0416 16.9521 26.0416 16.3333V12.6233ZM15.625 32.6666H28.125C28.6775 32.6666 29.2074 32.4208 29.5981 31.9832C29.9888 31.5456 30.2083 30.9521 30.2083 30.3333C30.2083 29.7145 29.9888 29.121 29.5981 28.6834C29.2074 28.2458 28.6775 28 28.125 28H15.625C15.0724 28 14.5425 28.2458 14.1518 28.6834C13.7611 29.121 13.5416 29.7145 13.5416 30.3333C13.5416 30.9521 13.7611 31.5456 14.1518 31.9832C14.5425 32.4208 15.0724 32.6666 15.625 32.6666ZM23.9583 37.3333H15.625C15.0724 37.3333 14.5425 37.5791 14.1518 38.0167C13.7611 38.4543 13.5416 39.0478 13.5416 39.6666C13.5416 40.2855 13.7611 40.879 14.1518 41.3165C14.5425 41.7541 15.0724 42 15.625 42H23.9583C24.5108 42 25.0408 41.7541 25.4315 41.3165C25.8222 40.879 26.0416 40.2855 26.0416 39.6666C26.0416 39.0478 25.8222 38.4543 25.4315 38.0167C25.0408 37.5791 24.5108 37.3333 23.9583 37.3333ZM15.625 23.3333H17.7083C18.2608 23.3333 18.7908 23.0875 19.1815 22.6499C19.5722 22.2123 19.7916 21.6188 19.7916 21C19.7916 20.3811 19.5722 19.7876 19.1815 19.35C18.7908 18.9125 18.2608 18.6666 17.7083 18.6666H15.625C15.0724 18.6666 14.5425 18.9125 14.1518 19.35C13.7611 19.7876 13.5416 20.3811 13.5416 21C13.5416 21.6188 13.7611 22.2123 14.1518 22.6499C14.5425 23.0875 15.0724 23.3333 15.625 23.3333ZM44.1875 38.01C43.9938 37.7913 43.7634 37.6177 43.5095 37.4992C43.2556 37.3807 42.9833 37.3198 42.7083 37.3198C42.4333 37.3198 42.161 37.3807 41.9071 37.4992C41.6532 37.6177 41.4228 37.7913 41.2292 38.01L34.375 45.71L31.6875 42.6766C31.4932 42.4591 31.2626 42.2865 31.0088 42.1688C30.755 42.051 30.483 41.9904 30.2083 41.9904C29.9336 41.9904 29.6616 42.051 29.4078 42.1688C29.154 42.2865 28.9234 42.4591 28.7291 42.6766C28.5349 42.8942 28.3808 43.1525 28.2757 43.4367C28.1706 43.721 28.1165 44.0256 28.1165 44.3333C28.1165 44.641 28.1706 44.9456 28.2757 45.2299C28.3808 45.5141 28.5349 45.7724 28.7291 45.99L32.8958 50.6566C33.0895 50.8753 33.3199 51.0489 33.5738 51.1674C33.8277 51.2858 34.1 51.3468 34.375 51.3468C34.65 51.3468 34.9223 51.2858 35.1762 51.1674C35.4301 51.0489 35.6605 50.8753 35.8541 50.6566L44.1875 41.3233C44.3827 41.1064 44.5377 40.8483 44.6435 40.564C44.7493 40.2796 44.8037 39.9747 44.8037 39.6666C44.8037 39.3586 44.7493 39.0536 44.6435 38.7693C44.5377 38.4849 44.3827 38.2269 44.1875 38.01Z" fill="#6F63BE"/>
</svg>
